<?xml version="1.0" standalone="no"?>
<!DOCTYPE svg PUBLIC "-//W3C//DTD SVG 20010904//EN"
 "http://www.w3.org/TR/2001/REC-SVG-20010904/DTD/svg10.dtd">
<svg version="1.0" xmlns="http://www.w3.org/2000/svg"
 width="248.000000pt" height="121.000000pt" viewBox="0 0 248.000000 121.000000"
 preserveAspectRatio="xMidYMid meet">

<g transform="translate(0.000000,121.000000) scale(0.100000,-0.100000)"
fill="#000000" stroke="none">
<path d="M1075 884 c-119 -17 -174 -30 -277 -65 -185 -62 -334 -149 -478 -280
l-55 -50 60 -55 c229 -212 568 -344 883 -344 280 0 572 96 789 259 90 68 153
126 153 140 0 17 -99 105 -199 175 -61 43 -206 117 -266 136 -22 7 -48 16 -58
21 -9 5 -63 21 -120 35 -80 19 -135 26 -252 29 -82 2 -163 1 -180 -1z m251
-53 c225 -79 316 -338 190 -536 -136 -211 -438 -220 -593 -17 -35 46 -73 157
-73 213 0 47 32 146 62 195 86 135 264 197 414 145z m-379 -41 c-81 -72 -137
-194 -137 -300 0 -102 43 -203 123 -287 l50 -53 -34 6 c-62 11 -238 73 -311
110 -90 45 -203 122 -266 180 l-47 44 50 45 c135 122 329 225 520 275 99 27
103 25 52 -20z m628 10 c157 -47 366 -163 485 -268 l45 -40 -19 -21 c-37 -41
-191 -149 -277 -194 -85 -45 -258 -108 -331 -121 l-38 -7 53 53 c163 163 164
408 2 574 l-54 55 37 -7 c20 -3 64 -14 97 -24z"/>
<path d="M1130 699 c-86 -36 -134 -110 -135 -209 0 -54 5 -73 28 -113 15 -26
47 -60 69 -75 37 -24 51 -27 124 -27 75 0 86 3 126 30 28 20 53 49 71 85 25
47 28 63 24 116 -5 74 -39 132 -99 171 -34 23 -54 28 -112 30 -39 2 -82 -2
-96 -8z"/>
</g>
</svg>
