<?xml version="1.0" standalone="no"?>
<!DOCTYPE svg PUBLIC "-//W3C//DTD SVG 20010904//EN"
 "http://www.w3.org/TR/2001/REC-SVG-20010904/DTD/svg10.dtd">
<svg version="1.0" xmlns="http://www.w3.org/2000/svg"
 width="12500.000000pt" height="12500.000000pt" viewBox="0 0 12500.000000 12500.000000"
 preserveAspectRatio="xMidYMid meet">

<g transform="translate(0.000000,12500.000000) scale(0.100000,-0.100000)"
fill="#000000" stroke="none">
<path d="M51410 107060 c-1802 -74 -3412 -301 -5085 -716 -4096 -1019 -7836
-3058 -10958 -5976 -224 -211 -909 -895 -1115 -1116 -2486 -2662 -4321 -5739
-5453 -9147 -772 -2322 -1186 -4717 -1249 -7230 -6 -264 -10 -11321 -10
-32612 l0 -32213 22290 0 22290 0 0 -48 c0 -35 5 -54 18 -65 17 -16 796 -17
11010 -17 9978 0 10992 1 11006 16 14 14 16 245 16 2395 l0 2379 46 108 c25
59 65 165 89 235 36 105 44 123 49 100 3 -15 98 -687 211 -1493 113 -806 212
-1502 220 -1547 97 -525 518 -949 1058 -1065 134 -28 379 -31 510 -5 264 53
493 170 682 349 198 187 329 417 392 691 23 96 27 135 27 277 l0 165 -3222
22031 c-1772 12116 -3227 22046 -3233 22065 -15 44 -27 59 -48 59 -108 0 -281
-628 -617 -2230 -86 -413 -87 -415 -136 -503 -206 -371 -396 -570 -796 -831
-74 -47 -158 -111 -188 -141 -93 -93 -130 -203 -121 -360 4 -67 4953 -35304
4982 -35470 l5 -30 -22 35 c-204 331 -393 566 -674 840 -1629 1585 -4938 2688
-8749 2915 -552 32 -801 39 -1480 39 -711 0 -986 -8 -1575 -45 -1520 -95
-2995 -333 -4283 -690 -98 -27 -185 -49 -193 -49 -12 0 -14 3578 -14 27343 0
17783 -4 27438 -10 27617 -25 701 -68 1294 -141 1950 -694 6272 -3782 12049
-8634 16156 -1136 961 -2421 1862 -3695 2591 -2329 1333 -4841 2269 -7490
2792 -1198 237 -2274 366 -3665 442 -249 13 -1768 20 -2045 9z"/>
</g>
</svg>
